<?xml version="1.0" encoding="utf-8"?>
<!-- Generator: Adobe Illustrator 20.0.0, SVG Export Plug-In . SVG Version: 6.00 Build 0)  -->
<svg version="1.1" id="Layer_1" xmlns="http://www.w3.org/2000/svg" xmlns:xlink="http://www.w3.org/1999/xlink" x="0px" y="0px"
	 viewBox="0 0 64 42" style="enable-background:new 0 0 64 42;" xml:space="preserve">
<style type="text/css">
	.st0{fill:#DE2910;}
	.st1{fill:#57A863;}
	.st2{fill:#FFDE00;}
</style>
<path id="Rounded_Rectangle_7_copy" class="st0" d="M5.8,0h52.3C61.4,0,64,2.6,64,5.7v30.6c0,3.2-2.6,5.7-5.8,5.7H5.8
	C2.6,42,0,39.4,0,36.3V5.7C0,2.6,2.6,0,5.8,0z"/>
<path class="st1" d="M64,5.3v31.4c0-0.1,0-0.3,0-0.4V5.7C64,5.6,64,5.5,64,5.3z"/>
<polygon class="st2" points="11.3,5.2 12.5,8.6 16.1,8.6 13.1,10.8 14.3,14.2 11.3,12.1 8.4,14.2 9.5,10.8 6.6,8.6 10.2,8.6 "/>
<polygon class="st2" points="19.4,1.9 19.6,3.2 20.9,3.5 19.7,4 19.8,5.4 18.9,4.4 17.7,5 18.3,3.8 17.4,2.8 18.7,3.1 "/>
<polygon class="st2" points="22.3,6.2 23,7.3 24.3,7.1 23.4,8.1 24.1,9.2 22.9,8.7 22,9.7 22.1,8.3 20.9,7.8 22.2,7.5 "/>
<polygon class="st2" points="21.9,11 22.3,12.3 23.6,12.3 22.5,13.1 22.9,14.4 21.9,13.6 20.8,14.4 21.2,13.1 20.2,12.2 21.5,12.3 
	"/>
<polygon class="st2" points="19.3,14.8 19.1,16.1 20.4,16.6 19.1,17 19,18.4 18.3,17.2 17,17.6 17.9,16.5 17.2,15.4 18.4,15.8 "/>
</svg>
